<?xml version="1.0" encoding="UTF-8" standalone="no"?> <!-- Created with Vectornator for iOS (http://vectornator.io/) --><!DOCTYPE svg PUBLIC "-//W3C//DTD SVG 1.1//EN" "http://www.w3.org/Graphics/SVG/1.1/DTD/svg11.dtd">
<svg style="fill-rule:evenodd;clip-rule:evenodd;stroke-linecap:round;stroke-linejoin:round;" xmlns:vectornator="http://vectornator.io" xmlns:xlink="http://www.w3.org/1999/xlink" xmlns="http://www.w3.org/2000/svg" xml:space="preserve" version="1.1" viewBox="0 0 3370.82 2384.24">
<metadata>
<vectornator:setting key="DimensionsVisible" value="1"/>
<vectornator:setting key="DynamicGuides" value="0"/>
<vectornator:setting key="SnapToPoints" value="0"/>
<vectornator:setting key="GuidesVisible" value="1"/>
<vectornator:setting key="RulersVisible" value="1"/>
<vectornator:setting key="CMYKEnabledKey" value="0"/>
<vectornator:setting key="SnapToEdges" value="0"/>
<vectornator:setting key="DisplayWhiteBackground" value="1"/>
<vectornator:setting key="SnapToGuides" value="1"/>
<vectornator:setting key="GridSpacing" value="36"/>
<vectornator:setting key="SnapToGrid" value="0"/>
<vectornator:setting key="Units" value="Millimeters"/>
<vectornator:setting key="New" value="1"/>
</metadata>
<defs/>
<g id="レイヤー 3" vectornator:layerName="レイヤー 3">
<path d="M0+0L3370.82+0L3370.82+2384.23L0+2384.23L0+0Z" opacity="1" fill="#ffffff"/>
</g>
<g id="レイヤー 1" vectornator:layerName="レイヤー 1">
<path d="M100.625+1199.6C100.625+975.058+282.653+793.034+507.196+793.034C731.739+793.034+913.767+975.058+913.767+1199.6C913.767+1424.13+731.739+1606.16+507.196+1606.16C282.653+1606.16+100.625+1424.13+100.625+1199.6Z" opacity="1" fill="#ff5c00"/>
<path d="M507.198+965.854C502.009+965.855+497.026+967.887+493.317+971.515L276.765+1148.63C276.515+1148.82+276.269+1149.01+276.028+1149.21L275.292+1149.83L275.292+1149.87C271.267+1153.62+268.978+1158.87+268.972+1164.37C268.972+1175.34+277.86+1184.22+288.824+1184.22L308.676+1184.22L308.676+1402.59C308.676+1424.53+326.444+1442.3+348.38+1442.3L666.015+1442.3C687.952+1442.3+705.719+1424.53+705.719+1402.59L705.719+1184.22L725.572+1184.22C736.536+1184.22+745.424+1175.34+745.424+1164.37C745.428+1158.86+743.138+1153.59+739.104+1149.83L738.793+1149.6C738.358+1149.2+737.905+1148.83+737.436+1148.47L666.015+1090.04L666.015+1005.56C666.015+994.6+657.121+985.706+646.163+985.706L626.311+985.706C615.352+985.706+606.459+994.6+606.459+1005.56L606.459+1041.35L520.652+971.166C516.995+967.767+512.191+965.87+507.198+965.854Z" opacity="1" fill="#ffffff"/>
<path d="M507.198+1385.85C505.197+1385.85+503.196+1385.22+501.509+1383.97C497.078+1380.67+392.849+1302.41+392.849+1242.92C392.849+1206.15+422.78+1176.22+459.553+1176.22C482.022+1176.22+498.259+1188.34+507.198+1197.3C516.136+1188.34+532.373+1176.22+554.843+1176.22C591.616+1176.22+621.546+1206.14+621.546+1242.92C621.546+1302.41+517.318+1380.67+512.887+1383.98C511.2+1385.22+509.199+1385.85+507.198+1385.85Z" opacity="1" fill="#ff5c00"/>
</g>
<g id="レイヤー 2" vectornator:layerName="レイヤー 2">
<g opacity="1">
<path d="M1191.16+1216.93L1490.61+1216.93C1512.12+1216.93+1524.17+1200.58+1524.17+1180.79C1524.17+1159.28+1512.98+1143.79+1490.61+1143.79L1191.16+1143.79L1191.16+957.937C1191.16+940.728+1201.49+930.403+1217.84+930.403L1538.79+930.403C1562.03+930.403+1574.07+914.054+1574.07+892.543C1574.07+871.032+1562.03+855.544+1538.79+855.544L1197.19+855.544C1136.09+855.544+1109.42+881.357+1109.42+947.612L1109.42+1494C1109.42+1518.95+1126.63+1531+1149.86+1531C1173.96+1531+1191.16+1518.95+1191.16+1494.86L1191.16+1216.93Z" opacity="1" fill="#ff5c00"/>
<path d="M1655.82+1370.09C1655.82+1475.07+1711.75+1538.74+1813.28+1538.74C1899.33+1538.74+1949.24+1494.86+1975.91+1434.63C1973.33+1448.39+1970.75+1465.6+1970.75+1475.07L1970.75+1499.16C1970.75+1520.67+1987.1+1531+2010.33+1531C2032.7+1531+2048.19+1519.81+2048.19+1496.58L2048.19+1078.4C2048.19+1055.17+2031.84+1043.98+2009.47+1043.98C1986.24+1043.98+1969.89+1055.17+1969.89+1078.4L1969.89+1317.61C1969.89+1351.16+1961.28+1377.84+1940.63+1407.09C1911.38+1447.53+1874.38+1469.04+1828.77+1469.04C1765.1+1469.04+1734.98+1427.74+1734.98+1353.74L1734.98+1078.4C1734.98+1055.17+1718.63+1043.98+1695.4+1043.98C1672.17+1043.98+1655.82+1055.17+1655.82+1078.4L1655.82+1370.09Z" opacity="1" fill="#ff5c00"/>
<path d="M2171.24+1496.58C2171.24+1519.81+2186.72+1531+2210.82+1531C2234.05+1531+2249.54+1519.81+2249.54+1496.58L2249.54+884.799C2249.54+861.567+2234.05+850.381+2210.82+850.381C2186.72+850.381+2171.24+861.567+2171.24+884.799L2171.24+1496.58Z" opacity="1" fill="#ff5c00"/>
<path d="M2430.24+1049.14L2357.1+1049.14C2335.59+1049.14+2326.12+1064.63+2326.12+1084.42C2326.12+1104.21+2336.45+1117.12+2357.1+1117.12L2430.24+1117.12L2430.24+1496.58C2430.24+1519.81+2445.73+1531+2468.96+1531C2491.33+1531+2506.82+1519.81+2506.82+1496.58L2506.82+1117.12L2610.94+1117.12C2631.59+1117.12+2642.77+1104.21+2642.77+1084.42C2642.77+1063.77+2632.45+1049.14+2610.94+1049.14L2506.82+1049.14L2506.82+996.658C2506.82+934.705+2531.77+917.496+2563.61+917.496C2581.68+917.496+2596.31+920.077+2610.94+926.101C2616.1+927.821+2620.4+928.682+2624.7+928.682C2640.19+928.682+2652.24+917.496+2656.54+902.868C2659.12+897.706+2659.98+892.543+2659.98+886.52C2659.98+873.613+2653.96+860.706+2637.61+855.544C2612.66+847.8+2592+846.079+2563.61+846.079C2498.21+846.079+2430.24+876.194+2430.24+987.193L2430.24+1049.14ZM2717.63+1496.58C2717.63+1519.81+2732.26+1531+2756.35+1531C2779.59+1531+2795.08+1519.81+2795.08+1496.58L2795.08+1077.54C2795.08+1055.17+2779.59+1043.98+2756.35+1043.98C2732.26+1043.98+2717.63+1055.17+2717.63+1077.54L2717.63+1496.58ZM2757.21+849.52C2724.52+849.52+2698.7+874.474+2698.7+907.171C2698.7+940.728+2724.52+965.681+2757.21+965.681C2789.05+965.681+2814.87+940.728+2814.87+907.171C2814.87+874.474+2789.05+849.52+2757.21+849.52Z" opacity="1" fill="#ff5c00"/>
<path d="M2917.26+1496.58C2917.26+1519.81+2932.75+1531+2956.84+1531C2980.08+1531+2995.56+1519.81+2995.56+1496.58L2995.56+884.799C2995.56+861.567+2980.08+850.381+2956.84+850.381C2932.75+850.381+2917.26+861.567+2917.26+884.799L2917.26+1496.58Z" opacity="1" fill="#ff5c00"/>
<path d="M3117.75+1496.58C3117.75+1519.81+3133.24+1531+3157.33+1531C3180.56+1531+3196.05+1519.81+3196.05+1496.58L3196.05+884.799C3196.05+861.567+3180.56+850.381+3157.33+850.381C3133.24+850.381+3117.75+861.567+3117.75+884.799L3117.75+1496.58Z" opacity="1" fill="#ff5c00"/>
</g>
</g>
</svg>
