<?xml version="1.0" encoding="UTF-8" standalone="no"?> <!-- Created with Vectornator for iOS (http://vectornator.io/) --><!DOCTYPE svg PUBLIC "-//W3C//DTD SVG 1.1//EN" "http://www.w3.org/Graphics/SVG/1.1/DTD/svg11.dtd">
<svg style="fill-rule:evenodd;clip-rule:evenodd;stroke-linecap:round;stroke-linejoin:round;" xmlns:vectornator="http://vectornator.io" xmlns:xlink="http://www.w3.org/1999/xlink" xmlns="http://www.w3.org/2000/svg" xml:space="preserve" version="1.1" viewBox="0 0 3370.82 2384.24">
<metadata>
<vectornator:setting key="DimensionsVisible" value="1"/>
<vectornator:setting key="SnapToGrid" value="0"/>
<vectornator:setting key="SnapToPoints" value="0"/>
<vectornator:setting key="GuidesVisible" value="1"/>
<vectornator:setting key="RulersVisible" value="1"/>
<vectornator:setting key="SnapToEdges" value="0"/>
<vectornator:setting key="DisplayWhiteBackground" value="0"/>
<vectornator:setting key="SnapToGuides" value="1"/>
<vectornator:setting key="GridSpacing" value="36"/>
<vectornator:setting key="Units" value="Millimeters"/>
<vectornator:setting key="DynamicGuides" value="0"/>
<vectornator:setting key="New" value="1"/>
</metadata>
<defs/>
<g id="レイヤー 1" vectornator:layerName="レイヤー 1">
<path d="M0+1199.6C0+975.058+182.028+793.034+406.571+793.034C631.113+793.034+813.141+975.058+813.141+1199.6C813.141+1424.13+631.113+1606.16+406.571+1606.16C182.028+1606.16+0+1424.13+0+1199.6Z" fill-opacity="0.760148" fill="#e26cba" opacity="1"/>
<path d="M406.572+965.854C401.383+965.855+396.401+967.887+392.691+971.515L176.14+1148.63C175.89+1148.82+175.644+1149.01+175.403+1149.21L174.667+1149.83L174.667+1149.87C170.642+1153.62+168.353+1158.87+168.346+1164.37C168.346+1175.34+177.235+1184.22+188.199+1184.22L208.051+1184.22L208.051+1402.59C208.051+1424.53+225.818+1442.3+247.755+1442.3L565.39+1442.3C587.326+1442.3+605.094+1424.53+605.094+1402.59L605.094+1184.22L624.946+1184.22C635.91+1184.22+644.799+1175.34+644.799+1164.37C644.803+1158.86+642.513+1153.59+638.478+1149.83L638.168+1149.6C637.733+1149.2+637.28+1148.83+636.811+1148.47L565.39+1090.04L565.39+1005.56C565.39+994.6+556.496+985.706+545.538+985.706L525.685+985.706C514.727+985.706+505.833+994.6+505.833+1005.56L505.833+1041.35L420.027+971.166C416.37+967.767+411.566+965.87+406.572+965.854Z" opacity="1" fill="#ffffff"/>
<path d="M406.572+1385.85C404.571+1385.85+402.57+1385.22+400.884+1383.97C396.453+1380.67+292.224+1302.41+292.224+1242.92C292.224+1206.15+322.155+1176.22+358.927+1176.22C381.397+1176.22+397.634+1188.34+406.572+1197.3C415.511+1188.34+431.748+1176.22+454.218+1176.22C490.99+1176.22+520.921+1206.14+520.921+1242.92C520.921+1302.41+416.692+1380.67+412.261+1383.98C410.575+1385.22+408.574+1385.85+406.572+1385.85Z" fill-opacity="0.760148" fill="#e26cba" opacity="1"/>
</g>
<g id="レイヤー 2" vectornator:layerName="レイヤー 2">
<g opacity="1">
<path d="M1090.54+1216.93L1389.98+1216.93C1411.49+1216.93+1423.54+1200.58+1423.54+1180.79C1423.54+1159.28+1412.35+1143.79+1389.98+1143.79L1090.54+1143.79L1090.54+957.937C1090.54+940.728+1100.86+930.403+1117.21+930.403L1438.17+930.403C1461.4+930.403+1473.45+914.054+1473.45+892.543C1473.45+871.032+1461.4+855.544+1438.17+855.544L1096.56+855.544C1035.47+855.544+1008.79+881.357+1008.79+947.612L1008.79+1494C1008.79+1518.95+1026+1531+1049.24+1531C1073.33+1531+1090.54+1518.95+1090.54+1494.86L1090.54+1216.93Z" fill-opacity="0.760148" fill="#e26cba" opacity="1"/>
<path d="M1555.19+1370.09C1555.19+1475.07+1611.12+1538.74+1712.66+1538.74C1798.7+1538.74+1848.61+1494.86+1875.29+1434.63C1872.7+1448.39+1870.12+1465.6+1870.12+1475.07L1870.12+1499.16C1870.12+1520.67+1886.47+1531+1909.7+1531C1932.08+1531+1947.56+1519.81+1947.56+1496.58L1947.56+1078.4C1947.56+1055.17+1931.22+1043.98+1908.84+1043.98C1885.61+1043.98+1869.26+1055.17+1869.26+1078.4L1869.26+1317.61C1869.26+1351.16+1860.66+1377.84+1840.01+1407.09C1810.75+1447.53+1773.75+1469.04+1728.15+1469.04C1664.47+1469.04+1634.35+1427.74+1634.35+1353.74L1634.35+1078.4C1634.35+1055.17+1618.01+1043.98+1594.77+1043.98C1571.54+1043.98+1555.19+1055.17+1555.19+1078.4L1555.19+1370.09Z" fill-opacity="0.760148" fill="#e26cba" opacity="1"/>
<path d="M2070.61+1496.58C2070.61+1519.81+2086.1+1531+2110.19+1531C2133.43+1531+2148.91+1519.81+2148.91+1496.58L2148.91+884.799C2148.91+861.567+2133.43+850.381+2110.19+850.381C2086.1+850.381+2070.61+861.567+2070.61+884.799L2070.61+1496.58Z" fill-opacity="0.760148" fill="#e26cba" opacity="1"/>
<path d="M2329.61+1049.14L2256.47+1049.14C2234.96+1049.14+2225.5+1064.63+2225.5+1084.42C2225.5+1104.21+2235.82+1117.12+2256.47+1117.12L2329.61+1117.12L2329.61+1496.58C2329.61+1519.81+2345.1+1531+2368.33+1531C2390.71+1531+2406.19+1519.81+2406.19+1496.58L2406.19+1117.12L2510.31+1117.12C2530.96+1117.12+2542.15+1104.21+2542.15+1084.42C2542.15+1063.77+2531.82+1049.14+2510.31+1049.14L2406.19+1049.14L2406.19+996.658C2406.19+934.705+2431.15+917.496+2462.98+917.496C2481.05+917.496+2495.68+920.077+2510.31+926.101C2515.47+927.821+2519.78+928.682+2524.08+928.682C2539.57+928.682+2551.61+917.496+2555.91+902.868C2558.5+897.706+2559.36+892.543+2559.36+886.52C2559.36+873.613+2553.33+860.706+2536.98+855.544C2512.03+847.8+2491.38+846.079+2462.98+846.079C2397.59+846.079+2329.61+876.194+2329.61+987.193L2329.61+1049.14ZM2617.01+1496.58C2617.01+1519.81+2631.64+1531+2655.73+1531C2678.96+1531+2694.45+1519.81+2694.45+1496.58L2694.45+1077.54C2694.45+1055.17+2678.96+1043.98+2655.73+1043.98C2631.64+1043.98+2617.01+1055.17+2617.01+1077.54L2617.01+1496.58ZM2656.59+849.52C2623.89+849.52+2598.08+874.474+2598.08+907.171C2598.08+940.728+2623.89+965.681+2656.59+965.681C2688.43+965.681+2714.24+940.728+2714.24+907.171C2714.24+874.474+2688.43+849.52+2656.59+849.52Z" fill-opacity="0.760148" fill="#e26cba" opacity="1"/>
<path d="M2816.64+1496.58C2816.64+1519.81+2832.12+1531+2856.22+1531C2879.45+1531+2894.94+1519.81+2894.94+1496.58L2894.94+884.799C2894.94+861.567+2879.45+850.381+2856.22+850.381C2832.12+850.381+2816.64+861.567+2816.64+884.799L2816.64+1496.58Z" fill-opacity="0.760148" fill="#e26cba" opacity="1"/>
<path d="M3017.13+1496.58C3017.13+1519.81+3032.61+1531+3056.71+1531C3079.94+1531+3095.43+1519.81+3095.43+1496.58L3095.43+884.799C3095.43+861.567+3079.94+850.381+3056.71+850.381C3032.61+850.381+3017.13+861.567+3017.13+884.799L3017.13+1496.58Z" fill-opacity="0.760148" fill="#e26cba" opacity="1"/>
</g>
</g>
</svg>
