<svg width="199" height="50" viewBox="0 0 199 50" fill="none" xmlns="http://www.w3.org/2000/svg">
<path fill-rule="evenodd" clip-rule="evenodd" d="M0 25C0 11.1922 11.1928 0 25 0C38.8071 0 50 11.1922 50 25C50 38.806 38.8071 50 25 50C11.1928 50 0 38.806 0 25Z" fill="#FF5C00"/>
<path fill-rule="evenodd" clip-rule="evenodd" d="M25 10.626C24.681 10.626 24.3746 10.7512 24.1466 10.9752L10.8309 21.8658C10.8153 21.8764 10.8004 21.8887 10.7855 21.9011L10.7402 21.9399V21.9417C10.4928 22.1727 10.352 22.4955 10.3515 22.8341C10.3515 23.5078 10.8981 24.0545 11.5723 24.0545H12.793V37.4814C12.793 38.8306 13.8855 39.924 15.2344 39.924H34.7658C36.1146 39.924 37.2072 38.8306 37.2072 37.4814V24.0545H38.4279C39.1021 24.0545 39.6485 23.5078 39.6485 22.8341C39.6489 22.4937 39.5081 22.171 39.26 21.9399L39.2409 21.9258C39.2141 21.9011 39.1862 21.8782 39.1575 21.8553L34.7658 18.2626V13.0669C34.7658 12.3932 34.2189 11.8464 33.545 11.8464H32.3243C31.6504 11.8464 31.1037 12.3932 31.1037 13.0669V15.2679L25.8273 10.9523C25.6025 10.7441 25.3071 10.6277 25 10.626Z" fill="white"/>
<path fill-rule="evenodd" clip-rule="evenodd" d="M25 36.4531C24.8771 36.4531 24.754 36.4144 24.6503 36.3368C24.3778 36.1339 17.9688 31.3209 17.9688 27.663C17.9688 25.402 19.8092 23.5625 22.0704 23.5625C23.452 23.5625 24.4504 24.3068 25 24.8588C25.5497 24.3068 26.5481 23.5625 27.9298 23.5625C30.191 23.5625 32.0314 25.402 32.0314 27.663C32.0314 31.3209 25.6224 36.1339 25.3499 36.3368C25.2462 36.4144 25.1231 36.4531 25 36.4531Z" fill="#FF5C00"/>
<path fill-rule="evenodd" clip-rule="evenodd" d="M68.3278 26.7701H87.8451C89.2472 26.7701 90.0324 25.5899 90.0324 24.1613C90.0324 22.6085 89.3033 21.4906 87.8451 21.4906H68.3278V8.0744C68.3278 6.83216 69.0008 6.08683 70.0664 6.08683H90.9857C92.5 6.08683 93.2851 4.90669 93.2851 3.35389C93.2851 1.8011 92.5 0.683105 90.9857 0.683105H68.7204C64.7386 0.683105 63 2.54645 63 7.32906V46.77C63 48.5713 64.1216 49.4409 65.6359 49.4409C67.2062 49.4409 68.3278 48.5713 68.3278 46.8321V26.7701Z" fill="#FF5C00"/>
<path fill-rule="evenodd" clip-rule="evenodd" d="M98.613 37.826C98.613 45.4037 102.258 49.9999 108.876 49.9999C114.484 49.9999 117.737 46.8322 119.476 42.4844C119.307 43.4782 119.139 44.7204 119.139 45.4037V47.1428C119.139 48.6956 120.205 49.4409 121.719 49.4409C123.177 49.4409 124.186 48.6335 124.186 46.9565V16.7701C124.186 15.0931 123.121 14.2856 121.663 14.2856C120.149 14.2856 119.083 15.0931 119.083 16.7701V34.0372C119.083 36.4596 118.522 38.385 117.176 40.4968C115.269 43.4161 112.858 44.9689 109.886 44.9689C105.735 44.9689 103.773 41.9875 103.773 36.6459V16.7701C103.773 15.0931 102.707 14.2856 101.193 14.2856C99.6785 14.2856 98.613 15.0931 98.613 16.7701V37.826Z" fill="#FF5C00"/>
<path fill-rule="evenodd" clip-rule="evenodd" d="M132.206 46.9565C132.206 48.6335 133.216 49.441 134.786 49.441C136.3 49.441 137.31 48.6335 137.31 46.9565V2.79502C137.31 1.118 136.3 0.310547 134.786 0.310547C133.216 0.310547 132.206 1.118 132.206 2.79502V46.9565Z" fill="#FF5C00"/>
<path fill-rule="evenodd" clip-rule="evenodd" d="M149.087 14.6584H144.32C142.918 14.6584 142.301 15.7764 142.301 17.205C142.301 18.6335 142.974 19.5652 144.32 19.5652H149.087V46.9565C149.087 48.6336 150.096 49.441 151.611 49.441C153.069 49.441 154.078 48.6336 154.078 46.9565V19.5652H160.864C162.21 19.5652 162.939 18.6335 162.939 17.205C162.939 15.7143 162.266 14.6584 160.864 14.6584H154.078V10.8696C154.078 6.39752 155.705 5.15528 157.78 5.15528C158.957 5.15528 159.911 5.34162 160.864 5.7764C161.201 5.90063 161.481 5.96274 161.761 5.96274C162.771 5.96274 163.556 5.15529 163.836 4.09939C164.005 3.72672 164.061 3.35403 164.061 2.91925C164.061 1.98757 163.668 1.05591 162.603 0.68324C160.976 0.124234 159.63 0 157.78 0C153.517 0 149.087 2.1739 149.087 10.1863V14.6584ZM167.818 46.9565C167.818 48.6336 168.772 49.441 170.342 49.441C171.856 49.441 172.866 48.6336 172.866 46.9565V16.7081C172.866 15.0932 171.856 14.2857 170.342 14.2857C168.772 14.2857 167.818 15.0932 167.818 16.7081V46.9565ZM170.398 0.248437C168.267 0.248437 166.585 2.0497 166.585 4.40995C166.585 6.83231 168.267 8.63353 170.398 8.63353C172.473 8.63353 174.156 6.83231 174.156 4.40995C174.156 2.0497 172.473 0.248437 170.398 0.248437Z" fill="#FF5C00"/>
<path fill-rule="evenodd" clip-rule="evenodd" d="M180.829 46.9565C180.829 48.6335 181.839 49.441 183.409 49.441C184.923 49.441 185.933 48.6335 185.933 46.9565V2.79502C185.933 1.118 184.923 0.310547 183.409 0.310547C181.839 0.310547 180.829 1.118 180.829 2.79502V46.9565Z" fill="#FF5C00"/>
<path fill-rule="evenodd" clip-rule="evenodd" d="M193.897 46.9565C193.897 48.6335 194.906 49.441 196.476 49.441C197.991 49.441 199 48.6335 199 46.9565V2.79502C199 1.118 197.991 0.310547 196.476 0.310547C194.906 0.310547 193.897 1.118 193.897 2.79502V46.9565Z" fill="#FF5C00"/>
</svg>
