<?xml version="1.0" encoding="UTF-8" standalone="no"?> <!-- Created with Vectornator for iOS (http://vectornator.io/) --><!DOCTYPE svg PUBLIC "-//W3C//DTD SVG 1.1//EN" "http://www.w3.org/Graphics/SVG/1.1/DTD/svg11.dtd">
<svg style="fill-rule:evenodd;clip-rule:evenodd;stroke-linecap:round;stroke-linejoin:round;" xmlns:vectornator="http://vectornator.io" xmlns:xlink="http://www.w3.org/1999/xlink" xmlns="http://www.w3.org/2000/svg" xml:space="preserve" version="1.1" viewBox="0 0 512 512">
<metadata>
<vectornator:setting key="DimensionsVisible" value="1"/>
<vectornator:setting key="SnapToGrid" value="0"/>
<vectornator:setting key="SnapToPoints" value="0"/>
<vectornator:setting key="GuidesVisible" value="1"/>
<vectornator:setting key="RulersVisible" value="1"/>
<vectornator:setting key="SnapToEdges" value="0"/>
<vectornator:setting key="DisplayWhiteBackground" value="1"/>
<vectornator:setting key="SnapToGuides" value="1"/>
<vectornator:setting key="GridSpacing" value="36"/>
<vectornator:setting key="Units" value="Pixels"/>
<vectornator:setting key="DynamicGuides" value="0"/>
<vectornator:setting key="New" value="1"/>
</metadata>
<defs/>
<g id="レイヤー 1" vectornator:layerName="レイヤー 1">
<path d="M219.086+90C212.323+90+206.659+93.9062+203.266+98.9844C203.266+99.0576+203.266+99.1064+203.266+99.1797L193.305+115L137.25+115C120.087+115+106+129.087+106+146.25L106+296.25C106+313.413+120.087+327.5+137.25+327.5L374.75+327.5C391.913+327.5+406+313.413+406+296.25L406+146.25C406+129.087+391.913+115+374.75+115L318.109+115L308.148+99.1797C308.148+99.1064+308.148+99.0576+308.148+98.9844C304.755+93.9062+299.091+90+292.328+90L219.086+90ZM219.086+102.5L292.328+102.5C294.33+102.5+295.99+103.599+297.602+106.016L309.516+124.57C310.663+126.377+312.641+127.5+314.789+127.5L374.75+127.5C385.102+127.5+393.5+135.898+393.5+146.25L393.5+296.25C393.5+306.602+385.102+315+374.75+315L137.25+315C126.898+315+118.5+306.602+118.5+296.25L118.5+146.25C118.5+135.898+126.898+127.5+137.25+127.5L196.625+127.5C198.773+127.5+200.751+126.377+201.898+124.57L213.617+106.016L213.812+105.82C215.375+103.623+217.182+102.5+219.086+102.5ZM162.25+140C151.972+140+143.5+148.472+143.5+158.75C143.5+169.028+151.972+177.5+162.25+177.5C172.528+177.5+181+169.028+181+158.75C181+148.472+172.528+140+162.25+140ZM162.25+152.5C165.717+152.5+168.5+155.283+168.5+158.75C168.5+162.217+165.717+165+162.25+165C158.783+165+156+162.217+156+158.75C156+155.283+158.783+152.5+162.25+152.5ZM256+152.5C218.109+152.5+187.25+183.359+187.25+221.25C187.25+259.141+218.109+290+256+290C293.891+290+324.75+259.141+324.75+221.25C324.75+183.359+293.891+152.5+256+152.5ZM256+165C287.128+165+312.25+190.122+312.25+221.25C312.25+252.378+287.128+277.5+256+277.5C224.872+277.5+199.75+252.378+199.75+221.25C199.75+190.122+224.872+165+256+165Z" opacity="1" fill="#000000"/>
<g opacity="1">
<path d="M109.662+387.839C109.662+400.057+110.511+412.359+111.02+417.619C108.814+412.868+104.063+403.79+100.16+397.426L78.78+362.726C77.168+360.181+75.7257+358.654+71.9078+358.654C68.599+358.654+66.5628+360.605+66.5628+363.744L66.5628+422.285C66.5628+424.576+68.2596+425.764+70.6352+425.764C72.9259+425.764+74.6227+424.576+74.6227+422.285L74.6227+396.239C74.6227+383.767+73.944+371.974+73.435+366.544C75.3863+370.786+79.6284+379.101+83.0221+384.531L105.505+420.928C107.626+424.321+108.984+425.764+112.632+425.764C116.025+425.764+117.722+423.727+117.722+420.419L117.722+362.132C117.722+359.757+116.11+358.654+113.735+358.654C111.359+358.654+109.662+359.757+109.662+362.132L109.662+387.839Z" opacity="1" fill="#000000"/>
<path d="M151.065+377.064C137.321+377.064+129.091+386.991+129.091+401.669C129.091+416.77+137.236+426.612+151.235+426.612C164.47+426.612+172.615+416.431+172.615+401.669C172.615+386.906+164.64+377.064+151.065+377.064ZM151.32+383.597C159.973+383.597+164.809+390.894+164.809+401.584C164.809+412.868+159.973+420.079+150.726+420.079C141.987+420.079+136.897+412.698+136.897+401.923C136.897+390.639+142.157+383.597+151.32+383.597Z" opacity="1" fill="#000000"/>
<path d="M211.981+422.285C211.981+424.576+213.678+425.764+215.969+425.764C218.345+425.764+220.126+424.576+220.126+422.285L220.126+362.132C220.126+359.757+218.345+358.654+215.969+358.654C213.678+358.654+211.981+359.757+211.981+362.132L211.981+422.285Z" opacity="1" fill="#000000"/>
<path d="M296.229+393.524C296.229+383.173+292.242+377.149+282.23+377.149C272.813+377.149+269.759+381.985+267.298+386.397C266.195+380.543+262.123+377.149+254.657+377.149C246.342+377.149+242.779+381.9+240.658+386.906C240.912+385.634+241.252+383.937+241.252+382.834L241.252+381.052C241.252+378.846+239.725+377.743+237.604+377.743C235.228+377.743+233.616+378.846+233.616+381.052L233.616+422.37C233.616+424.661+235.143+425.764+237.519+425.764C239.725+425.764+241.252+424.661+241.252+422.37L241.252+397.766C241.252+394.966+242.015+391.912+243.543+389.621C245.579+386.567+248.294+383.937+252.79+383.937C258.814+383.937+260.935+388.009+260.935+395.221L260.935+422.37C260.935+424.661+262.377+425.764+264.753+425.764C266.959+425.764+268.571+424.661+268.571+422.37L268.571+397.342C268.571+394.796+269.589+391.488+270.862+389.706C272.898+386.652+275.867+383.937+280.364+383.937C286.472+383.937+288.509+388.009+288.509+395.221L288.509+422.37C288.509+424.661+289.951+425.764+292.326+425.764C294.532+425.764+296.229+424.661+296.229+422.37L296.229+393.524Z" opacity="1" fill="#000000"/>
<path d="M336.699+395.221C327.621+395.39+323.209+395.899+318.543+397.172C310.483+399.378+305.731+404.468+305.731+412.443C305.731+421.182+311.416+426.442+320.748+426.442C329.148+426.442+333.644+423.134+336.868+419.485C336.953+421.182+337.123+422.709+337.377+423.727C337.717+425.255+339.244+425.764+340.941+425.764C341.195+425.764+341.45+425.764+341.704+425.764C343.825+425.594+345.098+424.406+345.098+423.049C345.098+422.794+345.013+422.455+344.928+422.2C344.419+420.588+343.995+417.704+343.995+414.734L343.995+391.572C343.995+381.561+338.396+377.064+327.027+377.064C320.155+377.064+316.337+378.507+313.367+380.798C311.416+382.325+309.21+384.785+308.362+387.415C308.277+387.755+308.192+388.094+308.192+388.433C308.192+389.96+309.38+391.148+310.992+391.657C311.586+391.912+312.264+391.997+312.943+391.997C314.385+391.997+315.658+391.403+316.252+389.791C317.694+385.888+320.748+383.512+326.942+383.512C333.644+383.512+336.699+385.973+336.699+391.572L336.699+395.221ZM336.699+407.014C336.699+410.238+336.105+411.85+334.493+413.886C331.778+417.279+327.366+419.91+322.021+419.91C316.931+419.91+313.537+416.94+313.537+412.528C313.537+408.456+315.319+405.826+318.712+404.129C322.106+402.432+326.772+401.584+336.699+401.329L336.699+407.014Z" opacity="1" fill="#000000"/>
<path d="M389.64+383.343C389.64+384.276+389.894+385.888+389.979+386.821C387.604+381.391+382.768+377.149+375.047+377.149C361.982+377.149+354.431+386.991+354.431+401.584C354.431+415.752+362.83+425.085+374.877+425.085C382.344+425.085+387.179+421.352+389.979+416.007C389.81+417.195+389.64+419.061+389.64+420.079C389.555+432.636+385.737+437.981+375.132+437.981C369.957+437.981+366.224+436.199+363.084+432.551C362.406+431.787+361.557+431.448+360.624+431.448C359.776+431.448+358.842+431.787+358.164+432.296C357.146+433.06+356.552+434.163+356.552+435.266C356.552+435.945+356.806+436.539+357.23+437.132C360.454+441.29+366.308+444.344+375.471+444.344C386.67+444.344+396.936+439.932+396.936+420.419L396.936+381.137C396.936+378.846+395.579+377.743+393.288+377.743C390.828+377.743+389.64+379.016+389.64+380.798L389.64+383.343ZM375.98+383.597C384.634+383.597+389.81+390.894+389.81+400.99C389.81+411.51+384.549+418.891+375.896+418.891C368.005+418.891+362.236+412.359+362.236+401.584C362.236+390.639+367.327+383.597+375.98+383.597Z" opacity="1" fill="#000000"/>
<path d="M444.278+403.196C446.908+403.196+448.52+401.584+448.52+398.529C448.52+398.275+448.52+398.105+448.52+397.851C447.672+386.736+440.715+377.064+428.328+377.064C414.499+377.064+406.863+387.33+406.863+402.008C406.863+416.686+414.923+426.527+428.837+426.527C439.866+426.527+444.787+420.928+447.502+415.328C447.841+414.819+447.926+414.31+447.926+413.801C447.926+412.274+446.738+411.256+445.296+410.831C444.702+410.662+444.108+410.492+443.514+410.492C442.327+410.492+441.224+411.086+440.46+412.613C438.424+417.11+435.03+420.164+428.922+420.164C419.759+420.164+414.583+413.631+414.414+403.196L444.278+403.196ZM414.668+397.002C415.771+388.688+420.183+383.258+428.328+383.258C436.133+383.258+439.781+389.451+440.799+395.475C440.799+395.645+440.799+395.815+440.799+395.899C440.799+396.663+440.46+397.002+439.527+397.002L414.668+397.002Z" opacity="1" fill="#000000"/>
</g>
</g>
</svg>
