<svg width="300" height="300" viewBox="0 0 300 300" fill="none" xmlns="http://www.w3.org/2000/svg">
<rect width="300" height="300" fill="white"/>
<path d="M35.5508 181.678H27.7109V203H22.4375V181.678H14.7031V177.406H35.5508V181.678ZM43.1973 186.055C44.5449 184.438 46.2383 183.629 48.2773 183.629C52.4023 183.629 54.4941 186.025 54.5527 190.818V203H49.4727V190.959C49.4727 189.869 49.2383 189.066 48.7695 188.551C48.3008 188.023 47.5215 187.76 46.4316 187.76C44.9434 187.76 43.8652 188.334 43.1973 189.482V203H38.1172V176H43.1973V186.055ZM67.1387 203.352C64.3496 203.352 62.0762 202.496 60.3184 200.785C58.5723 199.074 57.6992 196.795 57.6992 193.947V193.455C57.6992 191.545 58.0684 189.84 58.8066 188.34C59.5449 186.828 60.5879 185.668 61.9355 184.859C63.2949 184.039 64.8418 183.629 66.5762 183.629C69.1777 183.629 71.2227 184.449 72.7109 186.09C74.2109 187.73 74.9609 190.057 74.9609 193.068V195.143H62.8496C63.0137 196.385 63.5059 197.381 64.3262 198.131C65.1582 198.881 66.207 199.256 67.4727 199.256C69.4297 199.256 70.959 198.547 72.0605 197.129L74.5566 199.924C73.7949 201.002 72.7637 201.846 71.4629 202.455C70.1621 203.053 68.7207 203.352 67.1387 203.352ZM66.5586 187.742C65.5508 187.742 64.7305 188.082 64.0977 188.762C63.4766 189.441 63.0781 190.414 62.9023 191.68H69.9688V191.275C69.9453 190.15 69.6406 189.283 69.0547 188.674C68.4688 188.053 67.6367 187.742 66.5586 187.742ZM88.5488 188.744C87.8574 188.65 87.248 188.604 86.7207 188.604C84.7988 188.604 83.5391 189.254 82.9414 190.555V203H77.8613V183.98H82.6602L82.8008 186.248C83.8203 184.502 85.2324 183.629 87.0371 183.629C87.5996 183.629 88.127 183.705 88.6191 183.857L88.5488 188.744ZM99.4121 203.352C96.623 203.352 94.3496 202.496 92.5918 200.785C90.8457 199.074 89.9727 196.795 89.9727 193.947V193.455C89.9727 191.545 90.3418 189.84 91.0801 188.34C91.8184 186.828 92.8613 185.668 94.209 184.859C95.5684 184.039 97.1152 183.629 98.8496 183.629C101.451 183.629 103.496 184.449 104.984 186.09C106.484 187.73 107.234 190.057 107.234 193.068V195.143H95.123C95.2871 196.385 95.7793 197.381 96.5996 198.131C97.4316 198.881 98.4805 199.256 99.7461 199.256C101.703 199.256 103.232 198.547 104.334 197.129L106.83 199.924C106.068 201.002 105.037 201.846 103.736 202.455C102.436 203.053 100.994 203.352 99.4121 203.352ZM98.832 187.742C97.8242 187.742 97.0039 188.082 96.3711 188.762C95.75 189.441 95.3516 190.414 95.1758 191.68H102.242V191.275C102.219 190.15 101.914 189.283 101.328 188.674C100.742 188.053 99.9102 187.742 98.832 187.742ZM124.461 203H119.363V183.98H124.461V203ZM119.064 179.059C119.064 178.297 119.316 177.67 119.82 177.178C120.336 176.686 121.033 176.439 121.912 176.439C122.779 176.439 123.471 176.686 123.986 177.178C124.502 177.67 124.76 178.297 124.76 179.059C124.76 179.832 124.496 180.465 123.969 180.957C123.453 181.449 122.768 181.695 121.912 181.695C121.057 181.695 120.365 181.449 119.838 180.957C119.322 180.465 119.064 179.832 119.064 179.059ZM138.963 197.744C138.963 197.123 138.652 196.637 138.031 196.285C137.422 195.922 136.438 195.6 135.078 195.318C130.555 194.369 128.293 192.447 128.293 189.553C128.293 187.865 128.99 186.459 130.385 185.334C131.791 184.197 133.625 183.629 135.887 183.629C138.301 183.629 140.229 184.197 141.67 185.334C143.123 186.471 143.85 187.947 143.85 189.764H138.77C138.77 189.037 138.535 188.439 138.066 187.971C137.598 187.49 136.865 187.25 135.869 187.25C135.014 187.25 134.352 187.443 133.883 187.83C133.414 188.217 133.18 188.709 133.18 189.307C133.18 189.869 133.443 190.326 133.971 190.678C134.51 191.018 135.412 191.316 136.678 191.574C137.943 191.82 139.01 192.102 139.877 192.418C142.561 193.402 143.902 195.107 143.902 197.533C143.902 199.268 143.158 200.674 141.67 201.752C140.182 202.818 138.26 203.352 135.904 203.352C134.311 203.352 132.893 203.07 131.65 202.508C130.42 201.934 129.453 201.154 128.75 200.17C128.047 199.174 127.695 198.102 127.695 196.953H132.512C132.559 197.855 132.893 198.547 133.514 199.027C134.135 199.508 134.967 199.748 136.01 199.748C136.982 199.748 137.715 199.566 138.207 199.203C138.711 198.828 138.963 198.342 138.963 197.744ZM160.83 183.98L160.988 186.178C162.348 184.479 164.17 183.629 166.455 183.629C168.471 183.629 169.971 184.221 170.955 185.404C171.939 186.588 172.443 188.357 172.467 190.713V203H167.387V190.836C167.387 189.758 167.152 188.979 166.684 188.498C166.215 188.006 165.436 187.76 164.346 187.76C162.916 187.76 161.844 188.369 161.129 189.588V203H156.049V183.98H160.83ZM175.543 193.314C175.543 191.428 175.906 189.746 176.633 188.27C177.359 186.793 178.402 185.65 179.762 184.842C181.133 184.033 182.721 183.629 184.525 183.629C187.092 183.629 189.184 184.414 190.801 185.984C192.43 187.555 193.338 189.688 193.525 192.383L193.561 193.684C193.561 196.602 192.746 198.945 191.117 200.715C189.488 202.473 187.303 203.352 184.561 203.352C181.818 203.352 179.627 202.473 177.986 200.715C176.357 198.957 175.543 196.566 175.543 193.543V193.314ZM180.623 193.684C180.623 195.488 180.963 196.871 181.643 197.832C182.322 198.781 183.295 199.256 184.561 199.256C185.791 199.256 186.752 198.787 187.443 197.85C188.135 196.9 188.48 195.389 188.48 193.314C188.48 191.545 188.135 190.174 187.443 189.201C186.752 188.229 185.779 187.742 184.525 187.742C183.283 187.742 182.322 188.229 181.643 189.201C180.963 190.162 180.623 191.656 180.623 193.684ZM222.775 193.666C222.775 196.596 222.107 198.945 220.771 200.715C219.447 202.473 217.654 203.352 215.393 203.352C213.471 203.352 211.918 202.684 210.734 201.348V210.312H205.654V183.98H210.365L210.541 185.844C211.771 184.367 213.377 183.629 215.357 183.629C217.701 183.629 219.523 184.496 220.824 186.23C222.125 187.965 222.775 190.355 222.775 193.402V193.666ZM217.695 193.297C217.695 191.527 217.379 190.162 216.746 189.201C216.125 188.24 215.217 187.76 214.021 187.76C212.428 187.76 211.332 188.369 210.734 189.588V197.375C211.355 198.629 212.463 199.256 214.057 199.256C216.482 199.256 217.695 197.27 217.695 193.297ZM225.148 193.314C225.148 191.428 225.512 189.746 226.238 188.27C226.965 186.793 228.008 185.65 229.367 184.842C230.738 184.033 232.326 183.629 234.131 183.629C236.697 183.629 238.789 184.414 240.406 185.984C242.035 187.555 242.943 189.688 243.131 192.383L243.166 193.684C243.166 196.602 242.352 198.945 240.723 200.715C239.094 202.473 236.908 203.352 234.166 203.352C231.424 203.352 229.232 202.473 227.592 200.715C225.963 198.957 225.148 196.566 225.148 193.543V193.314ZM230.229 193.684C230.229 195.488 230.568 196.871 231.248 197.832C231.928 198.781 232.9 199.256 234.166 199.256C235.396 199.256 236.357 198.787 237.049 197.85C237.74 196.9 238.086 195.389 238.086 193.314C238.086 191.545 237.74 190.174 237.049 189.201C236.357 188.229 235.385 187.742 234.131 187.742C232.889 187.742 231.928 188.229 231.248 189.201C230.568 190.162 230.229 191.656 230.229 193.684ZM256.596 197.744C256.596 197.123 256.285 196.637 255.664 196.285C255.055 195.922 254.07 195.6 252.711 195.318C248.188 194.369 245.926 192.447 245.926 189.553C245.926 187.865 246.623 186.459 248.018 185.334C249.424 184.197 251.258 183.629 253.52 183.629C255.934 183.629 257.861 184.197 259.303 185.334C260.756 186.471 261.482 187.947 261.482 189.764H256.402C256.402 189.037 256.168 188.439 255.699 187.971C255.23 187.49 254.498 187.25 253.502 187.25C252.646 187.25 251.984 187.443 251.516 187.83C251.047 188.217 250.812 188.709 250.812 189.307C250.812 189.869 251.076 190.326 251.604 190.678C252.143 191.018 253.045 191.316 254.311 191.574C255.576 191.82 256.643 192.102 257.51 192.418C260.193 193.402 261.535 195.107 261.535 197.533C261.535 199.268 260.791 200.674 259.303 201.752C257.814 202.818 255.893 203.352 253.537 203.352C251.943 203.352 250.525 203.07 249.283 202.508C248.053 201.934 247.086 201.154 246.383 200.17C245.68 199.174 245.328 198.102 245.328 196.953H250.145C250.191 197.855 250.525 198.547 251.146 199.027C251.768 199.508 252.6 199.748 253.643 199.748C254.615 199.748 255.348 199.566 255.84 199.203C256.344 198.828 256.596 198.342 256.596 197.744ZM270.904 179.305V183.98H274.156V187.707H270.904V197.199C270.904 197.902 271.039 198.406 271.309 198.711C271.578 199.016 272.094 199.168 272.855 199.168C273.418 199.168 273.916 199.127 274.35 199.045V202.895C273.354 203.199 272.328 203.352 271.273 203.352C267.711 203.352 265.895 201.553 265.824 197.955V187.707H263.047V183.98H265.824V179.305H270.904ZM282.154 195.143H277.936L277.338 177.406H282.752L282.154 195.143ZM280.045 197.92C280.9 197.92 281.586 198.172 282.102 198.676C282.629 199.18 282.893 199.824 282.893 200.609C282.893 201.383 282.629 202.021 282.102 202.525C281.586 203.029 280.9 203.281 280.045 203.281C279.201 203.281 278.516 203.029 277.988 202.525C277.473 202.021 277.215 201.383 277.215 200.609C277.215 199.836 277.473 199.197 277.988 198.693C278.516 198.178 279.201 197.92 280.045 197.92Z" fill="#595959"/>
<path d="M200 100C200 127.62 177.612 150 150 150C122.388 150 100 127.62 100 100C100 72.3958 122.388 50 150 50C177.612 50 200 72.3958 200 100ZM150 110.081C144.878 110.081 140.726 114.233 140.726 119.355C140.726 124.477 144.878 128.629 150 128.629C155.122 128.629 159.274 124.477 159.274 119.355C159.274 114.233 155.122 110.081 150 110.081ZM141.195 76.7448L142.691 104.164C142.76 105.447 143.821 106.452 145.106 106.452H154.894C156.179 106.452 157.24 105.447 157.309 104.164L158.805 76.7448C158.881 75.3589 157.777 74.1935 156.389 74.1935H143.61C142.223 74.1935 141.119 75.3589 141.195 76.7448V76.7448Z" fill="#FFA573"/>
</svg>
